<?xml version="1.0" standalone="no"?>
<!DOCTYPE svg PUBLIC "-//W3C//DTD SVG 20010904//EN"
 "http://www.w3.org/TR/2001/REC-SVG-20010904/DTD/svg10.dtd">
<svg version="1.0" xmlns="http://www.w3.org/2000/svg"
 width="480.000000pt" height="480.000000pt" viewBox="0 0 480.000000 480.000000"
 preserveAspectRatio="xMidYMid meet">
<metadata>
Created by potrace 1.11, written by Peter Selinger 2001-2013
</metadata>
<g transform="translate(0.000000,480.000000) scale(0.100000,-0.100000)"
fill="#000000" stroke="none">
<path d="M2380 3870 c-114 -9 -416 -59 -546 -90 -197 -46 -442 -140 -614 -235
-251 -139 -419 -297 -535 -503 -105 -188 -146 -361 -95 -407 16 -14 20 -32 21
-79 0 -34 4 -87 8 -118 6 -51 5 -58 -10 -58 -31 0 -30 -36 2 -121 24 -63 32
-102 33 -155 1 -67 3 -74 56 -155 30 -46 75 -111 101 -145 l47 -61 7 -124 c18
-351 50 -460 161 -558 65 -57 135 -81 239 -81 74 0 86 2 95 20 6 11 8 25 5 30
-3 5 13 3 36 -5 66 -24 103 -19 144 16 19 17 35 36 35 43 1 36 17 38 76 8 76
-38 232 -86 354 -109 74 -14 147 -17 330 -17 210 0 252 3 395 28 280 49 510
132 692 252 53 35 98 64 100 64 1 0 19 -11 39 -25 46 -31 98 -32 159 -3 l45
22 24 -23 c24 -22 25 -22 85 -7 140 36 218 99 252 205 40 122 37 372 -7 592
l-15 77 71 157 c38 86 70 165 70 175 0 9 -9 29 -21 44 -19 24 -20 31 -9 99 6
39 10 92 8 117 -2 38 -7 46 -25 48 -13 2 -23 4 -24 5 0 1 -8 55 -18 119 -17
115 -17 117 2 122 25 6 19 33 -28 134 -51 108 -126 211 -223 304 -218 209
-476 318 -912 384 -117 18 -468 26 -610 14z m605 -275 c61 -8 142 -20 182 -27
73 -12 117 -7 189 23 30 12 38 10 117 -28 210 -101 387 -255 468 -406 31 -58
31 -61 13 -74 -19 -14 -19 -15 1 -29 11 -8 36 -20 57 -26 43 -13 43 -13 59
-127 13 -92 9 -101 -43 -101 -23 0 -33 -9 -58 -52 l-29 -53 37 -23 c20 -12 54
-27 75 -34 20 -6 37 -14 37 -17 0 -14 -94 -201 -101 -201 -8 0 -46 45 -51 61
-2 7 -42 5 -116 -5 -149 -21 -142 -22 -142 17 0 34 -15 105 -23 114 -11 10
-116 -9 -119 -23 -2 -9 -25 0 -77 31 -143 86 -305 140 -506 171 -164 25 -513
25 -673 0 -365 -55 -668 -192 -891 -401 -44 -41 -85 -75 -90 -75 -6 0 -14 6
-18 14 -6 12 -18 13 -57 5 -27 -5 -51 -11 -53 -13 -3 -2 -7 -38 -10 -79 l-6
-74 -60 -7 c-33 -3 -83 -6 -112 -6 l-53 0 -22 -52 -22 -52 -19 25 c-29 36 -94
131 -108 156 -11 21 -8 25 44 58 30 20 55 39 54 43 0 4 -13 27 -28 52 -27 44
-28 45 -84 48 l-57 3 0 104 0 104 45 27 c45 26 45 27 30 51 -14 20 -14 30 -4
61 18 57 106 228 150 294 57 83 162 192 237 246 55 38 67 44 83 34 44 -28 118
-14 319 58 286 103 515 164 710 189 115 15 603 12 725 -4z m-25 -920 c124 -22
256 -66 354 -118 l79 -42 2 -55 c1 -30 20 -192 43 -360 22 -168 48 -379 57
-470 l17 -165 -50 -45 c-211 -189 -645 -326 -1092 -345 -293 -13 -571 45 -754
155 l-52 32 -43 446 c-24 246 -47 476 -52 512 l-9 65 42 38 c130 115 370 237
600 303 227 66 293 74 538 70 154 -2 255 -9 320 -21z"/>
<path d="M2859 2386 c-73 -26 -175 -132 -250 -260 -20 -34 -14 -30 47 30 76
75 174 132 241 141 88 12 179 -41 261 -151 51 -69 49 -47 -6 58 -45 86 -126
171 -179 185 -48 14 -69 13 -114 -3z"/>
<path d="M1821 2254 c-67 -35 -143 -178 -156 -296 l-6 -53 31 71 c60 138 133
194 254 194 56 0 80 -6 143 -35 42 -20 90 -46 107 -58 55 -42 62 -41 21 2 -55
58 -151 134 -204 161 -60 30 -145 36 -190 14z"/>
<path d="M3031 1994 c-359 -89 -637 -125 -1028 -131 -173 -3 -303 -9 -303 -14
0 -17 62 -132 109 -204 169 -257 410 -388 681 -372 222 13 397 102 519 264 58
77 133 216 162 301 16 46 49 179 49 198 0 6 4 7 -189 -42z"/>
</g>
</svg>
